<svg width="700" height="535" viewBox="0 0 700 535" fill="none" xmlns="http://www.w3.org/2000/svg">
<path d="M64.5991 534.165L64.5664 534.377C64.5277 534.17 64.4904 533.959 64.4549 533.751C64.3902 533.414 64.334 533.077 64.281 532.738C62.179 519.497 63.3358 505.942 67.6509 493.249C68.4803 490.771 69.425 488.339 70.485 485.952C74.5386 476.709 80.2851 468.307 87.4277 461.179C89.7469 458.804 92.3929 456.772 95.2858 455.146C95.7106 454.92 96.1376 454.707 96.5742 454.51C99.2496 453.211 102.262 452.774 105.196 453.26C106.261 453.461 107.294 453.808 108.265 454.291C108.606 454.457 108.933 454.639 109.255 454.833C111.216 456.12 112.89 457.798 114.173 459.762C115.456 461.726 116.32 463.935 116.711 466.249C117.268 469.7 117.141 473.228 116.336 476.63C116.267 476.955 116.192 477.279 116.113 477.601C115.542 479.869 114.825 482.097 113.967 484.272C105.37 506.405 86.8967 526.042 64.5991 534.165Z" fill="#F2F2F2"/>
<path d="M108.208 454.362C101.5 464.008 95.164 473.898 89.199 484.032C83.2413 494.158 77.6731 504.501 72.4946 515.06C69.5976 520.967 66.8273 526.935 64.1837 532.962C63.891 533.629 64.8784 534.209 65.1749 533.534C69.8961 522.774 75.0196 512.204 80.5454 501.823C86.0678 491.453 91.978 481.302 98.2761 471.371C101.8 465.815 105.441 460.336 109.199 454.934C109.619 454.33 108.627 453.76 108.208 454.362Z" fill="#5E6472"/>
<path d="M115.385 476.688C110.345 483.243 102.925 487.546 94.7357 488.664C92.4509 488.976 90.1377 489.022 87.8424 488.801C87.108 488.731 87.1029 489.877 87.831 489.945C96.3729 490.664 104.854 487.983 111.432 482.483C113.277 480.939 114.936 479.187 116.376 477.26C116.817 476.673 115.823 476.105 115.385 476.688Z" fill="#5E6472"/>
<path d="M72.3347 512.247C71.1628 510.576 70.1891 508.775 69.4333 506.879C67.7066 502.557 67.0936 497.87 67.6509 493.249C68.4803 490.771 69.425 488.339 70.485 485.952C70.5492 486.046 70.5878 486.155 70.5971 486.268C70.6063 486.382 70.5859 486.496 70.5378 486.599C69.7915 488.389 69.2549 490.26 68.9388 492.174C67.8043 499 69.3793 505.999 73.3279 511.679C73.3779 511.741 73.4111 511.815 73.4244 511.893C73.4377 511.972 73.4306 512.053 73.4039 512.128C73.3597 512.227 73.2902 512.313 73.2024 512.378C73.1146 512.442 73.0116 512.482 72.9034 512.494C72.7953 512.506 72.6859 512.49 72.5861 512.446C72.4863 512.403 72.3997 512.334 72.3347 512.247Z" fill="#5E6472"/>
<path d="M95.4568 454.421C94.0772 459.922 94.4881 465.72 96.6296 470.971C96.7054 471.102 96.8299 471.198 96.976 471.238C97.122 471.278 97.2779 471.258 97.4098 471.184C97.5388 471.106 97.6329 470.981 97.6725 470.836C97.7122 470.691 97.6944 470.536 97.6228 470.403C95.6176 465.421 95.2455 459.93 96.5603 454.722C96.5944 454.577 96.5712 454.425 96.4954 454.298C96.4196 454.17 96.2972 454.077 96.1541 454.038C96.0109 453.998 95.8582 454.017 95.7281 454.088C95.598 454.159 95.5007 454.279 95.4568 454.421H95.4568Z" fill="#5E6472"/>
<path d="M64.4584 506.522L64.5279 506.725C64.3978 506.56 64.2666 506.39 64.1386 506.222C63.925 505.954 63.7189 505.682 63.5146 505.407C55.5064 494.657 50.2385 482.116 48.1675 468.87C47.7519 466.29 47.4594 463.697 47.29 461.091C46.589 451.021 47.7775 440.909 50.794 431.277C51.7453 428.096 53.1454 425.067 54.952 422.281C55.2236 421.885 55.5027 421.497 55.798 421.12C57.5642 418.726 60.0289 416.939 62.8525 416.005C63.8894 415.687 64.9652 415.515 66.0494 415.492C66.4278 415.48 66.8025 415.489 67.1773 415.511C69.5113 415.739 71.7731 416.447 73.8211 417.59C75.8691 418.733 77.6592 420.287 79.0793 422.155C81.175 424.952 82.6998 428.136 83.5665 431.523C83.6561 431.843 83.7407 432.164 83.82 432.486C84.3673 434.76 84.7667 437.066 85.0158 439.391C87.6777 462.987 80.4338 488.964 64.4584 506.522Z" fill="#F2F2F2"/>
<path d="M66.0317 415.581C64.5692 427.241 63.549 438.944 62.9712 450.692C62.3959 462.428 62.266 474.175 62.5817 485.933C62.7586 492.511 63.0755 499.084 63.5324 505.65C63.5828 506.377 64.7266 506.432 64.6755 505.696C63.8618 493.973 63.4922 482.231 63.5668 470.469C63.6432 458.719 64.165 446.982 65.1322 435.26C65.6736 428.702 66.3545 422.158 67.1748 415.627C67.2664 414.896 66.123 414.853 66.0317 415.581V415.581Z" fill="#5E6472"/>
<path d="M82.7516 432.016C81.3309 440.164 76.758 447.423 70.0244 452.22C68.1458 453.558 66.1186 454.674 63.9834 455.545C63.3008 455.825 63.8279 456.841 64.5046 456.564C72.4028 453.23 78.6681 446.913 81.9402 438.985C82.8578 436.761 83.5137 434.437 83.8947 432.061C84.0126 431.336 82.8687 431.296 82.7516 432.016V432.016Z" fill="#5E6472"/>
<path d="M61.1343 483.517C59.321 482.582 57.6226 481.439 56.0732 480.112C52.5378 477.087 49.8192 473.221 48.1675 468.87C47.7518 466.29 47.4593 463.697 47.29 461.091C47.3904 461.144 47.4752 461.223 47.5361 461.319C47.5969 461.415 47.6316 461.525 47.6369 461.639C47.8071 463.571 48.2005 465.478 48.8092 467.32C50.973 473.892 55.6168 479.358 61.7503 482.552C61.8233 482.584 61.887 482.634 61.9352 482.697C61.9835 482.76 62.0146 482.835 62.0258 482.914C62.0328 483.023 62.0113 483.131 61.9634 483.229C61.9155 483.327 61.8428 483.41 61.7527 483.471C61.6625 483.532 61.558 483.568 61.4495 483.576C61.341 483.584 61.2324 483.564 61.1343 483.517Z" fill="#5E6472"/>
<path d="M54.7669 421.56C56.0988 427.073 59.1541 432.016 63.4882 435.671C63.6162 435.752 63.771 435.779 63.9188 435.746C64.0667 435.714 64.1958 435.624 64.2781 435.497C64.3561 435.368 64.3816 435.214 64.3493 435.067C64.3169 434.92 64.2291 434.791 64.1042 434.707C60.0155 431.226 57.1371 426.537 55.8839 421.314C55.8471 421.17 55.7559 421.046 55.6295 420.968C55.5032 420.89 55.3515 420.865 55.2066 420.897C55.0616 420.929 54.9348 421.016 54.8527 421.139C54.7707 421.263 54.7399 421.414 54.7668 421.56L54.7669 421.56Z" fill="#5E6472"/>
<path d="M64.9535 534.306L65.1213 534.439C64.923 534.37 64.721 534.298 64.5227 534.225C64.1986 534.115 63.8784 533.997 63.558 533.874C51.0252 529.133 39.8368 521.405 30.9626 511.36C29.224 509.41 27.582 507.383 26.0366 505.278C20.0264 497.172 15.5856 488.011 12.9433 478.27C12.0326 475.076 11.582 471.77 11.6051 468.449C11.6204 467.968 11.647 467.491 11.6928 467.014C11.8926 464.045 13.0076 461.211 14.8842 458.903C15.5867 458.076 16.4002 457.351 17.3014 456.747C17.614 456.534 17.9344 456.339 18.2622 456.156C20.3516 455.09 22.6382 454.468 24.9791 454.327C27.32 454.187 29.6647 454.531 31.8663 455.339C35.1378 456.567 38.1357 458.428 40.689 460.814C40.9367 461.036 41.1808 461.261 41.4212 461.49C43.1059 463.11 44.6838 464.839 46.1451 466.663C61.0873 485.111 68.9646 510.902 64.9535 534.306Z" fill="#F2F2F2"/>
<path d="M17.3346 456.832C22.3774 467.445 27.8167 477.856 33.6524 488.065C39.4843 498.264 45.6973 508.232 52.2914 517.969C55.9808 523.417 59.785 528.783 63.704 534.07C64.1377 534.655 65.1309 534.085 64.6917 533.492C57.6969 524.053 51.0659 514.359 44.7986 504.409C38.5389 494.467 32.662 484.297 27.168 473.898C24.0946 468.081 21.146 462.2 18.3222 456.255C18.0063 455.59 17.0198 456.17 17.3346 456.832Z" fill="#5E6472"/>
<path d="M40.2677 461.669C43.4559 469.3 43.5098 477.881 40.4177 485.552C39.5551 487.692 38.4476 489.724 37.1173 491.609C36.6928 492.213 37.6841 492.785 38.105 492.187C42.9656 485.121 44.8449 476.422 43.3348 467.978C42.911 465.61 42.2131 463.299 41.2554 461.091C40.9646 460.417 39.9789 460.999 40.2677 461.669Z" fill="#5E6472"/>
<path d="M49.7711 516.713C47.7403 516.903 45.6943 516.855 43.6744 516.572C39.0675 515.928 34.6962 514.136 30.9626 511.36C29.224 509.41 27.582 507.383 26.0366 505.278C26.1498 505.269 26.2636 505.29 26.3666 505.338C26.4695 505.386 26.5582 505.46 26.6237 505.553C27.8073 507.09 29.1648 508.484 30.669 509.708C36.0292 514.079 42.8837 516.182 49.7711 515.568C49.8497 515.556 49.9302 515.563 50.0049 515.591C50.0797 515.618 50.1461 515.664 50.198 515.725C50.2624 515.813 50.3027 515.916 50.315 516.024C50.3272 516.132 50.3109 516.241 50.2678 516.341C50.2246 516.441 50.156 516.528 50.0689 516.593C49.9818 516.659 49.8791 516.7 49.7711 516.713Z" fill="#5E6472"/>
<path d="M11.0608 467.941C15.15 471.868 20.385 474.387 26.0038 475.13C26.3126 475.171 26.5728 474.838 26.5758 474.558C26.5722 474.407 26.5108 474.264 26.4043 474.157C26.2978 474.051 26.1544 473.989 26.0038 473.986C20.6858 473.257 15.7365 470.857 11.8696 467.131C11.3395 466.62 10.5296 467.428 11.0608 467.941H11.0608Z" fill="#5E6472"/>
<path d="M143.026 383.344C144.143 382.578 145.079 381.576 145.767 380.408C146.455 379.241 146.879 377.937 147.009 376.588C147.139 375.239 146.972 373.878 146.52 372.601C146.067 371.324 145.34 370.161 144.39 369.195L147.984 288.93L129.689 290.985L130.752 369.496C129.236 371.2 128.398 373.402 128.396 375.684C128.395 377.965 129.229 380.168 130.742 381.875C132.255 383.582 134.341 384.674 136.605 384.945C138.869 385.216 141.154 384.646 143.026 383.344Z" fill="#FFB8B8"/>
<path d="M176.4 519.216L186.813 521.047L197.104 481.73L183.461 479.027L176.4 519.216Z" fill="#FFB8B8"/>
<path d="M205.194 534.255L172.469 528.498L174.692 515.846L194.773 519.379C196.433 519.671 198.02 520.287 199.442 521.193C200.864 522.099 202.094 523.276 203.062 524.657C204.03 526.038 204.716 527.597 205.082 529.244C205.447 530.891 205.485 532.593 205.194 534.255Z" fill="#2F2E41"/>
<path d="M147.821 524.431L158.393 524.43L163.422 483.625L147.82 483.626L147.821 524.431Z" fill="#FFB8B8"/>
<path d="M178.782 534.253L145.556 534.255L145.555 521.409L165.944 521.408C169.349 521.408 172.614 522.761 175.022 525.17C177.429 527.579 178.782 530.846 178.782 534.253L178.782 534.253Z" fill="#2F2E41"/>
<path d="M192.794 513.257C192.629 513.257 192.464 513.247 192.3 513.228L179.857 512.203C179.29 512.136 178.743 511.955 178.249 511.67C177.754 511.386 177.323 511.003 176.981 510.547C176.638 510.09 176.393 509.568 176.258 509.013C176.124 508.459 176.103 507.882 176.198 507.32L187.688 442.877L179.924 401.912C179.861 401.579 179.68 401.28 179.414 401.071C179.147 400.861 178.815 400.755 178.476 400.772C178.138 400.789 177.818 400.927 177.574 401.162C177.33 401.397 177.179 401.712 177.149 402.05L167.442 511.317C167.336 512.414 166.808 513.426 165.97 514.14C165.132 514.854 164.049 515.215 162.95 515.146L151.227 514.709C150.2 514.636 149.234 514.19 148.514 513.453C147.793 512.717 147.367 511.742 147.315 510.713L146.527 379.752L207.305 372.15L211.55 437.766L211.534 437.835L196.882 510.039C196.659 510.956 196.135 511.771 195.393 512.355C194.652 512.938 193.737 513.256 192.794 513.257Z" fill="#2F2E41"/>
<path d="M166.565 236.917C178.262 236.917 187.745 227.428 187.745 215.723C187.745 204.018 178.262 194.529 166.565 194.529C154.868 194.529 145.386 204.018 145.386 215.723C145.386 227.428 154.868 236.917 166.565 236.917Z" fill="#FFB8B8"/>
<path d="M186.522 389.324C183.209 389.344 179.96 388.414 177.16 386.644C166.9 380.227 155.247 382.778 149.214 384.869C148.616 385.079 147.977 385.15 147.347 385.078C146.717 385.007 146.111 384.793 145.575 384.454C145.045 384.121 144.597 383.672 144.265 383.142C143.933 382.611 143.725 382.012 143.657 381.389L132.686 283.341C130.847 266.914 140.736 251.469 156.199 246.616C156.78 246.434 157.371 246.261 157.972 246.098C162.784 244.792 167.823 244.558 172.735 245.411C177.647 246.264 182.313 248.184 186.404 251.036C190.571 253.919 194.056 257.681 196.614 262.057C199.171 266.433 200.739 271.317 201.207 276.365L210.443 375.07C210.506 375.709 210.42 376.354 210.192 376.954C209.963 377.554 209.598 378.092 209.126 378.527C205.889 381.524 196.492 389.323 186.522 389.324Z" fill="#57CC99"/>
<path d="M153.114 304.367L128.363 301.644C127.658 301.566 126.979 301.338 126.371 300.974C125.763 300.61 125.24 300.119 124.839 299.535C124.438 298.951 124.167 298.287 124.045 297.589C123.923 296.89 123.953 296.174 124.133 295.488L130.433 271.459C130.849 267.856 132.677 264.565 135.515 262.308C138.352 260.051 141.969 259.012 145.571 259.419C149.173 259.826 152.467 261.646 154.73 264.479C156.993 267.312 158.041 270.928 157.645 274.534L158.58 299.278C158.606 299.986 158.48 300.692 158.209 301.347C157.939 302.003 157.53 302.592 157.012 303.075C156.493 303.558 155.876 303.923 155.204 304.146C154.531 304.369 153.819 304.444 153.114 304.367V304.367Z" fill="#57CC99"/>
<path d="M210.344 379.907C211.361 379.011 212.169 377.904 212.712 376.662C213.254 375.421 213.518 374.075 213.485 372.72C213.451 371.365 213.122 370.034 212.518 368.821C211.915 367.607 211.054 366.541 209.995 365.697L203.895 285.583L185.969 289.621L196.492 367.64C195.192 369.515 194.626 371.801 194.899 374.067C195.172 376.332 196.266 378.418 197.973 379.93C199.681 381.442 201.883 382.275 204.163 382.271C206.443 382.266 208.643 381.425 210.344 379.907V379.907Z" fill="#FFB8B8"/>
<path d="M179.096 299.331C178.577 298.848 178.169 298.259 177.898 297.604C177.627 296.949 177.501 296.243 177.528 295.534L178.463 270.79C178.067 267.185 179.115 263.569 181.378 260.735C183.641 257.902 186.935 256.082 190.537 255.675C194.139 255.268 197.756 256.307 200.593 258.564C203.431 260.821 205.259 264.112 205.675 267.715L211.975 291.744C212.155 292.43 212.185 293.146 212.063 293.845C211.941 294.543 211.67 295.207 211.269 295.791C210.868 296.375 210.345 296.866 209.737 297.23C209.129 297.594 208.45 297.822 207.745 297.9L182.994 300.623C182.289 300.701 181.577 300.626 180.904 300.403C180.231 300.18 179.615 299.814 179.096 299.331Z" fill="#57CC99"/>
<path d="M165.306 237.715C164.929 237.715 164.554 237.671 164.188 237.585L164.08 237.558C145.459 234.708 141.343 223.915 140.44 219.407C139.505 214.74 140.57 210.236 142.975 208.486C141.664 204.342 141.874 200.668 143.603 197.56C146.617 192.141 153.158 190.309 154.035 190.084C159.259 186.228 165.51 188.802 166.647 189.324C176.752 185.583 180.614 188.697 181.313 189.393C185.83 190.205 188.583 191.951 189.497 194.584C191.214 199.529 185.785 205.68 185.553 205.94L185.432 206.074L177.344 206.46C176.576 206.496 175.825 206.694 175.139 207.04C174.452 207.386 173.846 207.872 173.36 208.468C172.874 209.063 172.518 209.754 172.316 210.496C172.113 211.238 172.069 212.014 172.186 212.774C172.405 213.754 172.681 214.721 173.014 215.669C174.396 219.989 175.431 223.68 174.096 225.083C173.793 225.354 173.42 225.535 173.02 225.604C172.62 225.674 172.208 225.629 171.832 225.475C170.567 225.137 169.708 225.208 169.281 225.686C168.616 226.428 168.819 228.305 169.852 230.972C170.176 231.815 170.263 232.731 170.104 233.621C169.945 234.51 169.546 235.339 168.95 236.018C168.501 236.547 167.943 236.973 167.314 237.266C166.685 237.559 166 237.713 165.306 237.715Z" fill="#2F2E41"/>
<path d="M415.433 305.468H311.092C307.205 305.463 303.479 303.916 300.731 301.166C297.983 298.416 296.437 294.688 296.432 290.798V133.895C296.437 130.006 297.983 126.278 300.731 123.527C303.479 120.777 307.205 119.23 311.092 119.226H415.433C419.32 119.23 423.046 120.777 425.794 123.527C428.542 126.278 430.088 130.006 430.093 133.895V290.798C430.088 294.688 428.542 298.416 425.794 301.166C423.046 303.916 419.32 305.463 415.433 305.468ZM311.092 120.952C307.663 120.956 304.375 122.321 301.95 124.747C299.525 127.174 298.161 130.464 298.157 133.895V290.798C298.161 294.23 299.525 297.52 301.95 299.947C304.375 302.373 307.663 303.738 311.092 303.742H415.433C418.862 303.738 422.15 302.373 424.575 299.947C427 297.52 428.364 294.23 428.368 290.798V133.895C428.364 130.464 427 127.174 424.575 124.747C422.15 122.321 418.862 120.956 415.433 120.952H311.092Z" fill="#223843"/>
<path d="M399.48 194.658H327.045C325.102 194.655 323.238 193.882 321.864 192.507C320.49 191.132 319.717 189.267 319.715 187.323V152.807C319.717 150.862 320.49 148.998 321.864 147.623C323.238 146.248 325.102 145.474 327.045 145.472H399.48C401.423 145.474 403.286 146.248 404.66 147.623C406.035 148.998 406.808 150.862 406.81 152.807V187.323C406.808 189.267 406.035 191.132 404.66 192.507C403.286 193.882 401.423 194.655 399.48 194.658Z" fill="#57CC99"/>
<path d="M394.306 227.016H332.219C330.389 227.016 328.635 226.289 327.341 224.994C326.047 223.7 325.32 221.944 325.32 220.113C325.32 218.282 326.047 216.526 327.341 215.232C328.635 213.937 330.389 213.21 332.219 213.21H394.306C396.136 213.21 397.89 213.937 399.184 215.232C400.478 216.526 401.205 218.282 401.205 220.113C401.205 221.944 400.478 223.7 399.184 224.994C397.89 226.289 396.136 227.016 394.306 227.016Z" fill="#FBFBFB"/>
<path d="M394.306 252.903H332.219C330.389 252.903 328.635 252.176 327.341 250.881C326.047 249.587 325.32 247.831 325.32 246C325.32 244.169 326.047 242.413 327.341 241.119C328.635 239.824 330.389 239.097 332.219 239.097H394.306C396.136 239.097 397.89 239.824 399.184 241.119C400.478 242.413 401.205 244.169 401.205 246C401.205 247.831 400.478 249.587 399.184 250.881C397.89 252.176 396.136 252.903 394.306 252.903Z" fill="#FBFBFB"/>
<path d="M394.306 278.791H332.219C330.389 278.791 328.635 278.063 327.341 276.769C326.047 275.474 325.32 273.718 325.32 271.887C325.32 270.056 326.047 268.301 327.341 267.006C328.635 265.711 330.389 264.984 332.219 264.984H394.306C396.136 264.984 397.89 265.711 399.184 267.006C400.478 268.301 401.205 270.056 401.205 271.887C401.205 273.718 400.478 275.474 399.184 276.769C397.89 278.063 396.136 278.791 394.306 278.791Z" fill="#FBFBFB"/>
<path d="M669.819 393.484H565.478C561.591 393.48 557.865 391.933 555.116 389.182C552.368 386.432 550.822 382.704 550.818 378.815V221.911C550.822 218.022 552.368 214.294 555.116 211.544C557.865 208.793 561.591 207.247 565.478 207.242H669.819C673.705 207.247 677.432 208.793 680.18 211.544C682.928 214.294 684.474 218.022 684.478 221.911V378.815C684.474 382.704 682.928 386.432 680.18 389.182C677.432 391.933 673.705 393.48 669.819 393.484ZM565.478 208.968C562.048 208.972 558.76 210.337 556.335 212.763C553.91 215.19 552.547 218.48 552.543 221.911V378.815C552.547 382.246 553.91 385.536 556.335 387.963C558.76 390.389 562.048 391.754 565.478 391.758H669.819C673.248 391.754 676.536 390.389 678.961 387.963C681.386 385.536 682.75 382.246 682.754 378.815V221.911C682.75 218.48 681.386 215.19 678.961 212.763C676.536 210.337 673.248 208.972 669.819 208.968H565.478Z" fill="#223843"/>
<path d="M648.692 246H586.604C584.775 246 583.02 245.273 581.726 243.978C580.433 242.684 579.706 240.928 579.706 239.097C579.706 237.266 580.433 235.51 581.726 234.216C583.02 232.921 584.775 232.194 586.604 232.194H648.692C650.521 232.194 652.276 232.921 653.57 234.216C654.864 235.51 655.59 237.266 655.59 239.097C655.59 240.928 654.864 242.684 653.57 243.978C652.276 245.273 650.521 246 648.692 246Z" fill="#FBFBFB"/>
<path d="M648.692 271.887H586.604C584.775 271.887 583.02 271.16 581.726 269.865C580.433 268.571 579.706 266.815 579.706 264.984C579.706 263.153 580.433 261.397 581.726 260.103C583.02 258.808 584.775 258.081 586.604 258.081H648.692C650.521 258.081 652.276 258.808 653.57 260.103C654.864 261.397 655.59 263.153 655.59 264.984C655.59 266.815 654.864 268.571 653.57 269.865C652.276 271.16 650.521 271.887 648.692 271.887Z" fill="#FBFBFB"/>
<path d="M653.866 337.899H581.43C579.487 337.897 577.624 337.123 576.25 335.748C574.876 334.373 574.103 332.509 574.101 330.564V296.048C574.103 294.104 574.876 292.239 576.25 290.864C577.624 289.489 579.487 288.716 581.43 288.714H653.866C655.809 288.716 657.672 289.489 659.046 290.864C660.42 292.239 661.193 294.104 661.195 296.048V330.564C661.193 332.509 660.42 334.373 659.046 335.748C657.672 337.123 655.809 337.897 653.866 337.899Z" fill="#E6E6E6"/>
<path d="M648.692 368.532H586.604C584.775 368.532 583.02 367.805 581.726 366.511C580.433 365.216 579.706 363.46 579.706 361.629C579.706 359.798 580.433 358.043 581.726 356.748C583.02 355.453 584.775 354.726 586.604 354.726H648.692C650.521 354.726 652.276 355.453 653.57 356.748C654.864 358.043 655.59 359.798 655.59 361.629C655.59 363.46 654.864 365.216 653.57 366.511C652.276 367.805 650.521 368.532 648.692 368.532Z" fill="#FBFBFB"/>
<path d="M606.007 144.105H501.666C497.779 144.1 494.053 142.554 491.304 139.803C488.556 137.053 487.01 133.325 487.006 129.436V32.0728C487.01 28.1836 488.556 24.4549 491.304 21.7048C494.053 18.9547 497.779 17.4078 501.666 17.4034H606.007C609.893 17.4078 613.619 18.9547 616.368 21.7048C619.116 24.4549 620.662 28.1836 620.666 32.0728V129.436C620.662 133.325 619.116 137.053 616.368 139.803C613.619 142.554 609.893 144.1 606.007 144.105ZM501.666 19.1292C498.236 19.1331 494.948 20.4981 492.523 22.9246C490.099 25.3512 488.735 28.6411 488.731 32.0728V129.436C488.735 132.867 490.099 136.157 492.523 138.584C494.948 141.01 498.236 142.375 501.666 142.379H606.007C609.436 142.375 612.724 141.01 615.149 138.584C617.574 136.157 618.938 132.867 618.942 129.436V32.0728C618.938 28.6411 617.574 25.3512 615.149 22.9246C612.724 20.4981 609.436 19.1331 606.007 19.1292H501.666Z" fill="#223843"/>
<path d="M584.88 113.545H522.793C520.963 113.545 519.208 112.817 517.914 111.523C516.621 110.228 515.894 108.472 515.894 106.641C515.894 104.81 516.621 103.055 517.914 101.76C519.208 100.465 520.963 99.7381 522.793 99.7381H584.88C586.709 99.7381 588.464 100.465 589.758 101.76C591.052 103.055 591.778 104.81 591.778 106.641C591.778 108.472 591.052 110.228 589.758 111.523C588.464 112.817 586.709 113.545 584.88 113.545Z" fill="#FBFBFB"/>
<path d="M584.88 87.6574H522.793C520.963 87.6574 519.208 86.9302 517.914 85.6355C516.621 84.3409 515.894 82.5851 515.894 80.7542C515.894 78.9234 516.621 77.1675 517.914 75.8729C519.208 74.5783 520.963 73.851 522.793 73.851H584.88C586.709 73.851 588.464 74.5783 589.758 75.8729C591.052 77.1675 591.778 78.9234 591.778 80.7542C591.778 82.5851 591.052 84.3409 589.758 85.6355C588.464 86.9302 586.709 87.6574 584.88 87.6574Z" fill="#FBFBFB"/>
<path d="M584.88 61.7704H522.793C520.963 61.7704 519.208 61.0431 517.914 59.7484C516.621 58.4538 515.894 56.698 515.894 54.8671C515.894 53.0363 516.621 51.2804 517.914 49.9858C519.208 48.6912 520.963 47.9639 522.793 47.9639H584.88C586.709 47.9639 588.464 48.6912 589.758 49.9858C591.052 51.2804 591.778 53.0363 591.778 54.8671C591.778 56.698 591.052 58.4538 589.758 59.7484C588.464 61.0431 586.709 61.7704 584.88 61.7704Z" fill="#FBFBFB"/>
<path d="M421.469 143.242C432.423 143.242 441.303 134.356 441.303 123.395C441.303 112.434 432.423 103.548 421.469 103.548C410.516 103.548 401.636 112.434 401.636 123.395C401.636 134.356 410.516 143.242 421.469 143.242Z" fill="#57CC99"/>
<path d="M419.503 130.966C419.057 130.967 418.623 130.823 418.266 130.555L418.244 130.538L413.583 126.967C413.366 126.802 413.183 126.596 413.046 126.36C412.909 126.124 412.82 125.864 412.784 125.594C412.748 125.323 412.765 125.048 412.835 124.785C412.905 124.521 413.027 124.274 413.192 124.058C413.358 123.841 413.565 123.66 413.801 123.523C414.037 123.387 414.298 123.299 414.568 123.263C414.838 123.228 415.113 123.246 415.376 123.317C415.639 123.388 415.886 123.511 416.101 123.678L419.121 125.994L426.255 116.683C426.42 116.467 426.627 116.286 426.862 116.15C427.098 116.014 427.358 115.926 427.627 115.89C427.897 115.854 428.171 115.872 428.434 115.943C428.696 116.013 428.943 116.134 429.158 116.3L429.114 116.36L429.16 116.301C429.595 116.636 429.88 117.129 429.951 117.674C430.023 118.219 429.876 118.77 429.543 119.206L421.151 130.158C420.957 130.41 420.707 130.614 420.422 130.754C420.136 130.895 419.822 130.967 419.503 130.966Z" fill="white"/>
<path d="M680.167 232.121C691.12 232.121 700 223.235 700 212.274C700 201.313 691.12 192.427 680.167 192.427C669.213 192.427 660.333 201.313 660.333 212.274C660.333 223.235 669.213 232.121 680.167 232.121Z" fill="#89C8D2"/>
<path d="M678.201 219.845C677.754 219.846 677.32 219.702 676.963 219.434L676.941 219.417L672.28 215.846C672.063 215.681 671.881 215.475 671.744 215.239C671.606 215.003 671.517 214.743 671.481 214.473C671.445 214.202 671.462 213.927 671.532 213.664C671.602 213.4 671.724 213.153 671.89 212.937C672.055 212.72 672.262 212.539 672.498 212.402C672.734 212.266 672.995 212.178 673.265 212.142C673.536 212.107 673.81 212.125 674.073 212.196C674.336 212.268 674.583 212.39 674.799 212.557L677.818 214.873L684.952 205.562C685.118 205.346 685.324 205.165 685.56 205.029C685.795 204.893 686.055 204.805 686.325 204.769C686.594 204.733 686.868 204.751 687.131 204.822C687.394 204.892 687.64 205.013 687.856 205.179L687.811 205.239L687.857 205.18C688.292 205.515 688.577 206.008 688.649 206.553C688.721 207.098 688.574 207.649 688.24 208.085L679.848 219.037C679.654 219.289 679.405 219.493 679.119 219.633C678.833 219.774 678.519 219.846 678.201 219.845Z" fill="white"/>
<path d="M617.217 39.6936C628.171 39.6936 637.05 30.8078 637.05 19.8468C637.05 8.8857 628.171 0 617.217 0C606.263 0 597.383 8.8857 597.383 19.8468C597.383 30.8078 606.263 39.6936 617.217 39.6936Z" fill="#89C8D2"/>
<path d="M615.251 27.4179C614.805 27.4187 614.37 27.2743 614.013 27.0065L613.991 26.9898L609.33 23.4188C609.113 23.2537 608.931 23.0474 608.794 22.8116C608.657 22.5759 608.568 22.3154 608.531 22.0451C608.495 21.7748 608.513 21.5 608.583 21.2364C608.653 20.9728 608.774 20.7257 608.94 20.5092C609.106 20.2927 609.313 20.1111 609.549 19.9748C609.785 19.8385 610.045 19.7501 610.316 19.7148C610.586 19.6795 610.861 19.6979 611.124 19.769C611.387 19.8401 611.633 19.9625 611.849 20.1291L614.868 22.4456L622.003 13.135C622.168 12.9191 622.374 12.7378 622.61 12.6017C622.845 12.4655 623.105 12.3771 623.375 12.3415C623.644 12.3059 623.918 12.3238 624.181 12.3941C624.444 12.4645 624.69 12.5859 624.906 12.7515L624.862 12.8118L624.907 12.7524C625.342 13.0872 625.627 13.5811 625.699 14.1257C625.771 14.6704 625.624 15.2213 625.29 15.6576L616.898 26.6092C616.704 26.8615 616.455 27.0658 616.169 27.206C615.883 27.3463 615.569 27.4188 615.251 27.4179Z" fill="white"/>
<path d="M329.408 535H0.862332C0.633629 535 0.414293 534.909 0.252576 534.747C0.0908587 534.585 7.62939e-06 534.366 7.62939e-06 534.137C7.62939e-06 533.908 0.0908587 533.689 0.252576 533.527C0.414293 533.365 0.633629 533.274 0.862332 533.274H329.408C329.636 533.274 329.856 533.365 330.018 533.527C330.179 533.689 330.27 533.908 330.27 534.137C330.27 534.366 330.179 534.585 330.018 534.747C329.856 534.909 329.636 535 329.408 535Z" fill="#3F3D56"/>
<path d="M463.465 423.739C463.465 426.351 461.35 428.478 458.733 428.478C456.125 428.478 454 426.36 454 423.739C454 421.128 456.116 419 458.733 419C461.35 419.009 463.465 421.128 463.465 423.739Z" stroke="#04D361" stroke-width="2" stroke-miterlimit="10" stroke-linecap="round" stroke-linejoin="round"/>
<path d="M269.465 448.739C269.465 451.351 267.35 453.478 264.733 453.478C262.125 453.478 260 451.36 260 448.739C260 446.128 262.116 444 264.733 444C267.35 444.009 269.465 446.128 269.465 448.739Z" stroke="#04D361" stroke-width="2" stroke-miterlimit="10" stroke-linecap="round" stroke-linejoin="round"/>
<path d="M260.465 50.739C260.465 53.3505 258.35 55.478 255.733 55.478C253.125 55.478 251 53.3596 251 50.739C251 48.1275 253.116 46 255.733 46C258.35 46.0091 260.465 48.1275 260.465 50.739Z" stroke="#04D361" stroke-width="2" stroke-miterlimit="10" stroke-linecap="round" stroke-linejoin="round"/>
<path d="M93.4651 111.739C93.4651 114.351 91.3496 116.478 88.7325 116.478C86.1246 116.478 84 114.36 84 111.739C84 109.128 86.1155 107 88.7325 107C91.3496 107.009 93.4651 109.128 93.4651 111.739Z" stroke="#04D361" stroke-width="2" stroke-miterlimit="10" stroke-linecap="round" stroke-linejoin="round"/>
<path d="M71.4651 357.739C71.4651 360.351 69.3496 362.478 66.7325 362.478C64.1246 362.478 62 360.36 62 357.739C62 355.128 64.1155 353 66.7325 353C69.3496 353.009 71.4651 355.128 71.4651 357.739Z" stroke="#04D361" stroke-width="2" stroke-miterlimit="10" stroke-linecap="round" stroke-linejoin="round"/>
<path d="M487 272L492.507 277.514" stroke="#04D361" stroke-width="2" stroke-miterlimit="10" stroke-linecap="round" stroke-linejoin="round"/>
<path d="M492.507 272L487 277.514" stroke="#04D361" stroke-width="2" stroke-miterlimit="10" stroke-linecap="round" stroke-linejoin="round"/>
<path d="M279 317L284.507 322.514" stroke="#04D361" stroke-width="2" stroke-miterlimit="10" stroke-linecap="round" stroke-linejoin="round"/>
<path d="M284.507 317L279 322.514" stroke="#04D361" stroke-width="2" stroke-miterlimit="10" stroke-linecap="round" stroke-linejoin="round"/>
<path d="M386 55L391.507 60.5142" stroke="#04D361" stroke-width="2" stroke-miterlimit="10" stroke-linecap="round" stroke-linejoin="round"/>
<path d="M391.507 55L386 60.5142" stroke="#04D361" stroke-width="2" stroke-miterlimit="10" stroke-linecap="round" stroke-linejoin="round"/>
<path d="M197 131L202.507 136.514" stroke="#04D361" stroke-width="2" stroke-miterlimit="10" stroke-linecap="round" stroke-linejoin="round"/>
<path d="M202.507 131L197 136.514" stroke="#04D361" stroke-width="2" stroke-miterlimit="10" stroke-linecap="round" stroke-linejoin="round"/>
<path d="M603 170L608.507 175.514" stroke="#04D361" stroke-width="2" stroke-miterlimit="10" stroke-linecap="round" stroke-linejoin="round"/>
<path d="M608.507 170L603 175.514" stroke="#04D361" stroke-width="2" stroke-miterlimit="10" stroke-linecap="round" stroke-linejoin="round"/>
<path d="M29.8929 223V230.798" stroke="#04D361" stroke-width="2" stroke-miterlimit="10" stroke-linecap="round" stroke-linejoin="round"/>
<path d="M33.7964 226.898H26" stroke="#04D361" stroke-width="2" stroke-miterlimit="10" stroke-linecap="round" stroke-linejoin="round"/>
<path d="M557.893 472V479.798" stroke="#04D361" stroke-width="2" stroke-miterlimit="10" stroke-linecap="round" stroke-linejoin="round"/>
<path d="M561.796 475.898H554" stroke="#04D361" stroke-width="2" stroke-miterlimit="10" stroke-linecap="round" stroke-linejoin="round"/>
</svg>
